# xmcd
#
# Track frame offsets: 
#        150
#        13247
#        25322
#        40416
#        57741
#        72891
#        87516
#
# Disc length: 1312 seconds
#
# Revision: 0
# Processed by: cddbd v1.5.2PL0 Copyright (c) Steve Scherf et al.
# Submitted via: ExactAudioCopy v1.3
#
DISCID=62051e07
DTITLE=Fierce Flowers - Fierce Flowers EP
DYEAR=2017
DGENRE=Country
TTITLE0=Crossroads
TTITLE1=Le Muret
TTITLE2=Papa's Gone Working
TTITLE3=Blackest Crow
TTITLE4=La Belle Noyée
TTITLE5=May Your Life Be Sweet and Simple
TTITLE6=Loin De Paris
EXTD=
EXTT0=
EXTT1=
EXTT2=
EXTT3=
EXTT4=
EXTT5=
EXTT6=
PLAYORDER=
